<svg id="Layer_1" data-name="Layer 1" xmlns="http://www.w3.org/2000/svg" viewBox="0 0 512.19 483.74"><defs><style>.cls-1{stroke:#fff;stroke-miterlimit:10;stroke-width:5px;}.cls-2{font-size:157.5px;fill:#fff;font-family:MyriadPro-Regular, Myriad Pro;}</style></defs><title>logo</title><path class="cls-1" d="M500,430c2.75-17.49,10.44-48.82,35-77,56.88-65.26,149.82-51.2,157-50V626c-7.18-1.2-100.12-15.26-157,50-24.56,28.18-32.25,59.51-35,77Z" transform="translate(-244 -269.65)"/><path d="M710.31,329V652.55s-85.72-34.21-136.51,16.62L523,720s80.43-59.63,149.21-45L741,689.7V329c1-43,33-82,1-41" transform="translate(-244 -269.65)"/><path class="cls-1" d="M500.19,429c-2.75-17.49-10.45-48.82-35-77-56.88-65.26-149.82-51.2-157-50V625c7.18-1.2,100.12-15.26,157,50,24.55,28.18,32.25,59.51,35,77Z" transform="translate(-244 -269.65)"/><path d="M289.87,328V651.55s85.72-34.21,136.52,16.62L477.19,719S396.76,659.37,328,674L259.19,688.7V328c-1-43-33-82-1-41" transform="translate(-244 -269.65)"/><text class="cls-2" transform="translate(106 270.18) scale(1.05 1)">C</text><text class="cls-2" transform="translate(306.29 270.34) scale(1.05 1)">B</text></svg>